<svg width="370" height="244" viewBox="0 0 370 244" fill="none" xmlns="http://www.w3.org/2000/svg">
<path d="M28.4991 6.88823C28.4991 6.88823 34.5687 11.6969 35.3496 9.47752C36.3707 6.57752 33.7855 0.969852 36.5503 1.95526C48.4039 6.18468 59.998 11.2013 72.3362 13.8135C82.8933 16.0484 93.5563 17.6945 104.201 19.4123C125.331 22.8242 146.564 25.3565 167.982 25.3366C174.427 25.3306 180.875 25.3721 187.316 25.1109C188.716 25.054 190.735 24.5442 192.057 25.1309C195.744 26.7681 199.539 27.954 203.594 28.0279C204.392 28.0427 205.194 28.0161 205.988 27.9384C206.604 27.8778 207.346 27.6292 207.925 27.9503C209.423 28.7818 210.726 29.7524 212.345 30.3598C214.503 31.1699 216.71 31.4236 218.994 31.4236C225.123 31.4236 229.69 29.944 221.037 36.6022C221.037 36.6022 212.504 42.6434 216.59 42.7662C220.676 42.8905 222.359 46.9586 227.767 42.7662C229.456 41.4567 230.942 39.9357 232.401 38.371C233.413 37.2872 234.543 36.1435 235.94 35.6035C236.579 35.3556 237.367 35.0516 238.058 35.1995C238.997 35.3993 238.839 36.3773 238.645 37.1792C238.474 37.8909 238.128 38.5479 237.621 39.0679C236.059 40.6718 237.381 40.9182 240.145 40.3019C240.145 40.3019 241.948 40.7946 242.669 42.2742C243.39 43.7538 246.755 44.2473 249.159 42.8912C251.563 41.5344 254.688 38.3281 255.77 39.315C256.851 40.3019 257.452 42.1514 259.255 42.1514C261.058 42.1514 265.384 43.466 262.139 44.6586C258.894 45.8489 254.689 47.3285 251.203 49.4251C247.717 51.5217 243.871 55.0964 244.111 64.7138C244.352 74.3311 245.833 86.088 248.975 86.6058C250.053 86.7826 250.343 87.0031 251.062 86.0465C251.953 84.8599 253.16 83.5934 253.397 82.0457C253.929 78.579 254.226 74.5656 252.699 71.3157C251.713 69.2154 251.387 66.1926 251.439 63.8571C251.478 62.123 252.389 60.289 253.006 58.6726C256.251 50.1649 257.213 49.6722 260.217 49.6722C263.221 49.6722 267.483 49.3038 268.75 51.2746C270.436 53.8994 272.079 59.4656 270.517 60.9452C268.955 62.4248 269.923 64.5909 271.319 63.6041C272.716 62.6186 276.441 60.3985 276.922 62.8643C277.403 65.3307 281.61 71.7426 280.047 73.3457C278.485 74.9481 272.952 83.5179 276.558 83.8878C280.163 84.2577 284.013 86.415 289.061 80.4966C291.662 77.4479 294.489 74.7284 297.485 72.1199C298.251 71.454 298.147 70.1646 298.077 69.2753C298.008 68.4009 298.105 67.5487 298.17 66.6757C298.297 64.9416 298.614 62.9612 299.744 61.5874C300.332 60.8712 301.115 60.4392 302.042 60.3993C315.92 59.7823 312.219 57.7767 312.652 53.312C312.969 50.0317 315.865 49.4998 315.799 46.2196C315.776 45.047 316.063 43.3181 317.007 42.5502C317.88 41.8407 319.011 41.6313 319.985 41.1238C321.247 40.4669 322.509 39.81 323.77 39.153C326.273 37.8495 328.775 36.546 331.278 35.2424C331.828 34.9554 332.378 34.6698 332.929 34.3821C332.929 34.3821 342.063 32.7797 342.904 29.8205C343.746 26.8613 346.271 20.5723 344.468 16.7497C342.665 12.9279 344.467 7.37946 348.193 7.00956C351.919 6.63966 353.722 5.52996 353.722 4.54307C353.722 3.55766 356.606 3.68047 356.967 5.65277C357.327 7.62655 360.572 17.4895 363.096 17.7366C365.62 17.9837 368.986 20.8186 368.986 20.8186C368.986 20.8186 372.351 21.0657 366.822 25.5045C361.293 29.9433 362.496 29.8197 362.496 30.8059C362.496 31.7928 354.082 37.5876 353.601 43.1361C353.121 48.6846 352.761 50.1642 354.563 51.6438C356.366 53.1234 359.611 58.3019 361.053 57.8085C362.496 57.3158 357.808 60.8912 355.525 61.8774C353.241 62.8643 354.322 63.7276 350.477 64.7138C346.631 65.6999 341.943 67.7965 341.342 69.7695C340.846 71.4037 340.921 73.3834 340.847 75.0731C340.737 77.5966 340.606 80.1252 340.559 82.6509C340.541 83.6903 340.61 84.7386 340.477 85.7721C340.347 86.7849 339.945 87.7244 339.603 88.6758C339.414 89.2018 339.274 89.8225 339.018 90.3167C338.545 91.2303 337.348 90.9233 336.538 91.2821C336.033 91.507 336.074 91.6771 335.988 92.195C335.811 93.2537 335.522 93.9764 336.052 94.9493C336.589 95.9347 336.906 97.0052 337.016 98.1297C337.257 100.595 338.338 104.664 334.372 104.664C333.336 104.664 332.3 104.664 331.265 104.664C331.287 104.675 331.341 104.664 331.367 104.664C331.152 105.892 331.158 107.471 331.968 108.487C333.05 109.844 331.127 112.063 333.531 112.803C335.934 113.543 339.059 114.16 338.699 117.242C338.442 119.441 340.516 119.883 342.166 119.972C342.564 119.994 342.504 124.583 342.466 125.011C342.321 126.636 341.904 128.396 340.585 129.457C339.84 130.056 338.901 130.198 337.978 130.065C331.969 129.201 336.896 131.296 336.896 132.53C336.896 133.763 336.295 136.476 333.05 136.723C329.805 136.969 330.646 145.969 325.598 147.573C320.55 149.176 320.43 166.438 310.815 166.808L307.811 168.165L308.291 180.002C308.291 180.002 314.772 199.057 318.507 202.687C321.931 206.016 327.94 218.962 325.656 229.072C325.656 229.072 323.555 241.65 315.983 231.169C308.411 220.689 303.484 214.523 303.484 214.523C303.484 214.523 300.239 212.921 300.96 208.112C301.681 203.304 299.998 198.989 296.874 197.632C293.749 196.276 289.567 190.415 288.1 189.987C285.742 189.298 288.22 196.893 278.725 195.783C278.725 195.783 275.962 194.796 275.721 191.837C275.602 190.379 274.264 190.348 273.153 190.476C271.368 190.681 269.528 191.078 267.754 191.386C265.474 191.783 263.407 192.536 261.058 192.576C253.968 192.7 251.563 193.316 250.242 194.425C248.92 195.535 247.802 199.165 246.72 201.508C245.639 203.85 255.288 209.161 243.39 207.311C243.39 207.311 242.248 207.619 237.381 207.681C237.381 207.681 235.878 213.352 232.935 208.359C230.536 204.287 226.805 199.481 225.603 204.167C224.402 208.851 224.883 206.879 220.196 205.03C215.509 203.18 209.5 205.03 204.812 207.002L203.131 206.876L199.73 212.795L192.916 214.52C192.916 214.52 190.632 215.014 188.469 218.219C186.306 221.425 181.499 220.685 182.34 229.07C183.18 237.453 180.834 234.869 182.637 237.211C184.439 239.555 190.088 246.026 178.854 243.372C168.91 241.022 169.118 235.975 167.195 232.769C166.433 231.497 165.862 230.101 165.203 228.773C164.061 226.471 163 224.132 161.806 221.857C160.437 219.251 159.13 216.618 157.572 214.123C156.181 211.891 154.873 210.398 153.071 208.482C152.208 207.566 151.564 206.576 150.427 206.017C149.89 205.751 148.822 205.525 148.263 205.337C147.506 205.084 147.71 204.174 147.298 203.563C147.035 203.175 146.71 202.848 146.278 202.666C145.332 202.266 144.371 202.64 143.638 203.301C142.117 204.675 140.725 205.268 139.31 206.756C138.787 207.307 138.252 208.766 137.723 209.311C136.666 210.401 134.64 209.696 133.363 209.367C131.826 208.971 129.946 208.393 128.977 207C128.268 205.983 127.839 204.684 127.387 203.54C126.605 201.557 125.77 199.598 124.949 197.632C123.147 193.316 120.972 189.033 117.931 185.49C117.21 184.65 116.406 184.264 115.475 183.738C113.84 182.816 113.539 181.025 112.479 179.625C112.08 179.098 111.356 179.164 110.74 179.119C108.677 178.969 101.658 178.428 99.6504 178.705C98.5911 178.853 98.8868 179.245 98.5818 180.058C98.1974 181.084 97.3047 180.964 96.3679 181.251C94.8861 181.706 93.2527 181.773 91.7175 181.78C90.4144 181.786 89.1143 181.666 87.8127 181.604C73.6306 180.925 70.1454 182.468 68.8236 174.637C67.6374 167.607 44.8575 164.774 42.9841 164.464C37.4257 163.55 41.8663 161.189 33.6558 160.316C28.021 159.716 29.6435 150.962 30.004 149.112C30.3646 147.263 17.9254 135.345 11.9157 135.244C8.13057 135.18 11.6756 129.568 11.6756 127.966C11.6756 126.363 7.75415 114.772 7.10803 113.05C6.39197 111.143 4.22359 100.717 4.22359 100.717C4.22359 100.717 3.60776 89.5132 0.858164 86.9691C-2.20656 84.1334 3.98274 81.1128 3.20178 77.7838C2.91189 76.5468 2.21096 75.7057 1.63912 74.5782C1.21727 73.7459 0.465879 71.8084 0.31733 70.8785C0.204116 70.169 2.05665 68.233 2.42081 67.6729C3.05827 66.6942 4.43703 65.5224 4.9447 64.4674C7.28831 59.5973 5.66509 58.9189 6.02565 54.4801C6.38621 50.0414 11.0741 40.5468 13.7177 39.3143C15.9784 38.2601 15.4455 34.8326 15.8912 32.7841C16.5431 29.7864 19.6071 26.862 20.869 22.0533C22.2478 16.7986 22.1533 13.5908 21.8908 8.12C21.8677 7.64283 21.3211 1.76662 22.2514 2.44871C23.0907 3.0657 28.4991 6.88823 28.4991 6.88823Z" fill="#B3DED4"/>
<path d="M349.537 50.045C349.537 56.1043 342.841 60.817 342.841 60.817C342.841 60.817 336.145 56.1043 336.145 50.045C336.145 48.2594 336.85 46.547 338.106 45.2844C339.362 44.0218 341.065 43.3125 342.841 43.3125C344.617 43.3125 346.32 44.0218 347.576 45.2844C348.831 46.547 349.537 48.2594 349.537 50.045V50.045Z" fill="#BF2659" stroke="#BF2659" stroke-width="0.8" stroke-linecap="round" stroke-linejoin="round"/>
<path d="M342.841 52.7379C344.32 52.7379 345.519 51.5322 345.519 50.0449C345.519 48.5576 344.32 47.3519 342.841 47.3519C341.362 47.3519 340.162 48.5576 340.162 50.0449C340.162 51.5322 341.362 52.7379 342.841 52.7379Z" fill="white" stroke="white" stroke-width="0.8" stroke-linecap="round" stroke-linejoin="round"/>
<path d="M331.681 69.7939C331.681 75.8532 324.985 80.5659 324.985 80.5659C324.985 80.5659 318.289 75.8532 318.289 69.7939C318.289 68.0083 318.994 66.2959 320.25 65.0333C321.506 63.7707 323.209 63.0614 324.985 63.0614C326.761 63.0614 328.464 63.7707 329.72 65.0333C330.976 66.2959 331.681 68.0083 331.681 69.7939V69.7939Z" fill="#BF2659" stroke="#BF2659" stroke-width="0.8" stroke-linecap="round" stroke-linejoin="round"/>
<path d="M324.985 72.4868C326.464 72.4868 327.664 71.2811 327.664 69.7938C327.664 68.3065 326.464 67.1008 324.985 67.1008C323.506 67.1008 322.307 68.3065 322.307 69.7938C322.307 71.2811 323.506 72.4868 324.985 72.4868Z" fill="white" stroke="white" stroke-width="0.8" stroke-linecap="round" stroke-linejoin="round"/>
<path d="M333.466 91.3377C333.466 97.397 326.77 102.11 326.77 102.11C326.77 102.11 320.074 97.397 320.074 91.3377C320.074 89.5522 320.779 87.8397 322.035 86.5771C323.291 85.3145 324.994 84.6052 326.77 84.6052C328.546 84.6052 330.249 85.3145 331.505 86.5771C332.761 87.8397 333.466 89.5522 333.466 91.3377V91.3377Z" fill="#BF2659" stroke="#BF2659" stroke-width="0.8" stroke-linecap="round" stroke-linejoin="round"/>
<path d="M326.77 94.0307C328.25 94.0307 329.449 92.825 329.449 91.3377C329.449 89.8504 328.25 88.6447 326.77 88.6447C325.291 88.6447 324.092 89.8504 324.092 91.3377C324.092 92.825 325.291 94.0307 326.77 94.0307Z" fill="white" stroke="white" stroke-width="0.8" stroke-linecap="round" stroke-linejoin="round"/>
<path d="M319.182 202.648C319.182 208.707 312.485 213.42 312.485 213.42C312.485 213.42 305.789 208.707 305.789 202.648C305.789 200.862 306.495 199.15 307.751 197.887C309.006 196.625 310.71 195.916 312.485 195.916C314.261 195.916 315.965 196.625 317.22 197.887C318.476 199.15 319.182 200.862 319.182 202.648V202.648Z" fill="#BF2659" stroke="#BF2659" stroke-width="0.8" stroke-linecap="round" stroke-linejoin="round"/>
<path d="M312.486 205.341C313.965 205.341 315.164 204.135 315.164 202.648C315.164 201.161 313.965 199.955 312.486 199.955C311.006 199.955 309.807 201.161 309.807 202.648C309.807 204.135 311.006 205.341 312.486 205.341Z" fill="white" stroke="white" stroke-width="0.8" stroke-linecap="round" stroke-linejoin="round"/>
<path d="M304.896 164.946C304.896 171.006 298.2 175.718 298.2 175.718C298.2 175.718 291.504 171.006 291.504 164.946C291.504 163.161 292.209 161.448 293.465 160.186C294.721 158.923 296.424 158.214 298.2 158.214C299.976 158.214 301.679 158.923 302.935 160.186C304.191 161.448 304.896 163.161 304.896 164.946V164.946Z" fill="#BF2659" stroke="#BF2659" stroke-width="0.8" stroke-linecap="round" stroke-linejoin="round"/>
<path d="M298.2 167.639C299.679 167.639 300.879 166.433 300.879 164.946C300.879 163.459 299.679 162.253 298.2 162.253C296.721 162.253 295.522 163.459 295.522 164.946C295.522 166.433 296.721 167.639 298.2 167.639Z" fill="white" stroke="white" stroke-width="0.8" stroke-linecap="round" stroke-linejoin="round"/>
<path d="M326.324 136.221C326.324 142.28 319.628 146.993 319.628 146.993C319.628 146.993 312.932 142.28 312.932 136.221C312.932 134.435 313.638 132.723 314.893 131.46C316.149 130.198 317.852 129.488 319.628 129.488C321.404 129.488 323.107 130.198 324.363 131.46C325.619 132.723 326.324 134.435 326.324 136.221V136.221Z" fill="#BF2659" stroke="#BF2659" stroke-width="0.8" stroke-linecap="round" stroke-linejoin="round"/>
<path d="M319.628 138.914C321.108 138.914 322.307 137.708 322.307 136.221C322.307 134.733 321.108 133.528 319.628 133.528C318.149 133.528 316.95 134.733 316.95 136.221C316.95 137.708 318.149 138.914 319.628 138.914Z" fill="white" stroke="white" stroke-width="0.8" stroke-linecap="round" stroke-linejoin="round"/>
<path d="M274.54 60.8169C274.54 66.8761 267.844 71.5889 267.844 71.5889C267.844 71.5889 261.148 66.8761 261.148 60.8169C261.148 59.0313 261.854 57.3188 263.109 56.0563C264.365 54.7937 266.068 54.0844 267.844 54.0844C269.62 54.0844 271.323 54.7937 272.579 56.0563C273.835 57.3188 274.54 59.0313 274.54 60.8169V60.8169Z" fill="#BF2659" stroke="#BF2659" stroke-width="0.8" stroke-linecap="round" stroke-linejoin="round"/>
<path d="M267.844 63.5098C269.324 63.5098 270.523 62.3041 270.523 60.8168C270.523 59.3295 269.324 58.1238 267.844 58.1238C266.365 58.1238 265.166 59.3295 265.166 60.8168C265.166 62.3041 266.365 63.5098 267.844 63.5098Z" fill="white" stroke="white" stroke-width="0.8" stroke-linecap="round" stroke-linejoin="round"/>
<path d="M183.474 211.625C183.474 217.685 176.777 222.397 176.777 222.397C176.777 222.397 170.081 217.685 170.081 211.625C170.081 209.84 170.787 208.127 172.043 206.865C173.298 205.602 175.001 204.893 176.777 204.893C178.553 204.893 180.257 205.602 181.512 206.865C182.768 208.127 183.474 209.84 183.474 211.625V211.625Z" fill="#BF2659" stroke="#BF2659" stroke-width="0.8" stroke-linecap="round" stroke-linejoin="round"/>
<path d="M176.778 214.318C178.257 214.318 179.456 213.113 179.456 211.625C179.456 210.138 178.257 208.932 176.778 208.932C175.298 208.932 174.099 210.138 174.099 211.625C174.099 213.113 175.298 214.318 176.778 214.318Z" fill="white" stroke="white" stroke-width="0.8" stroke-linecap="round" stroke-linejoin="round"/>
<path d="M165.617 190.081C165.617 196.14 158.921 200.853 158.921 200.853C158.921 200.853 152.225 196.14 152.225 190.081C152.225 188.295 152.93 186.583 154.186 185.32C155.442 184.058 157.145 183.348 158.921 183.348C160.697 183.348 162.4 184.058 163.656 185.32C164.911 186.583 165.617 188.295 165.617 190.081V190.081Z" fill="#BF2659" stroke="#BF2659" stroke-width="0.8" stroke-linecap="round" stroke-linejoin="round"/>
<path d="M158.921 192.774C160.4 192.774 161.599 191.568 161.599 190.081C161.599 188.594 160.4 187.388 158.921 187.388C157.442 187.388 156.242 188.594 156.242 190.081C156.242 191.568 157.442 192.774 158.921 192.774Z" fill="white" stroke="white" stroke-width="0.8" stroke-linecap="round" stroke-linejoin="round"/>
<path d="M24.5526 53.6355C24.5526 59.6947 17.8565 64.4075 17.8565 64.4075C17.8565 64.4075 11.1604 59.6947 11.1604 53.6355C11.1604 51.8499 11.8659 50.1374 13.1216 48.8749C14.3774 47.6123 16.0806 46.903 17.8565 46.903C19.6324 46.903 21.3356 47.6123 22.5914 48.8749C23.8472 50.1374 24.5526 51.8499 24.5526 53.6355V53.6355Z" fill="#BF2659" stroke="#BF2659" stroke-width="0.8" stroke-linecap="round" stroke-linejoin="round"/>
<path d="M17.8567 56.3284C19.3359 56.3284 20.5351 55.1227 20.5351 53.6354C20.5351 52.1481 19.3359 50.9424 17.8567 50.9424C16.3774 50.9424 15.1782 52.1481 15.1782 53.6354C15.1782 55.1227 16.3774 56.3284 17.8567 56.3284Z" fill="white" stroke="white" stroke-width="0.8" stroke-linecap="round" stroke-linejoin="round"/>
<path d="M35.2663 35.6818C35.2663 41.7411 28.5701 46.4538 28.5701 46.4538C28.5701 46.4538 21.874 41.7411 21.874 35.6818C21.874 33.8963 22.5795 32.1838 23.8353 30.9212C25.091 29.6587 26.7942 28.9493 28.5701 28.9493C30.3461 28.9493 32.0492 29.6587 33.305 30.9212C34.5608 32.1838 35.2663 33.8963 35.2663 35.6818V35.6818Z" fill="#BF2659" stroke="#BF2659" stroke-width="0.8" stroke-linecap="round" stroke-linejoin="round"/>
<path d="M28.5703 38.3748C30.0496 38.3748 31.2487 37.1691 31.2487 35.6818C31.2487 34.1945 30.0496 32.9888 28.5703 32.9888C27.091 32.9888 25.8918 34.1945 25.8918 35.6818C25.8918 37.1691 27.091 38.3748 28.5703 38.3748Z" fill="white" stroke="white" stroke-width="0.8" stroke-linecap="round" stroke-linejoin="round"/>
<path d="M35.2663 123.654C35.2663 129.713 28.5701 134.426 28.5701 134.426C28.5701 134.426 21.874 129.713 21.874 123.654C21.874 121.868 22.5795 120.156 23.8353 118.893C25.091 117.63 26.7942 116.921 28.5701 116.921C30.3461 116.921 32.0492 117.63 33.305 118.893C34.5608 120.156 35.2663 121.868 35.2663 123.654V123.654Z" fill="#BF2659" stroke="#BF2659" stroke-width="0.8" stroke-linecap="round" stroke-linejoin="round"/>
<path d="M28.5703 126.346C30.0496 126.346 31.2487 125.141 31.2487 123.653C31.2487 122.166 30.0496 120.96 28.5703 120.96C27.091 120.96 25.8918 122.166 25.8918 123.653C25.8918 125.141 27.091 126.346 28.5703 126.346Z" fill="white" stroke="white" stroke-width="0.8" stroke-linecap="round" stroke-linejoin="round"/>
<path d="M117.405 132.63C117.405 138.689 110.709 143.402 110.709 143.402C110.709 143.402 104.013 138.689 104.013 132.63C104.013 130.845 104.719 129.132 105.974 127.87C107.23 126.607 108.933 125.898 110.709 125.898C112.485 125.898 114.188 126.607 115.444 127.87C116.7 129.132 117.405 130.845 117.405 132.63V132.63Z" fill="#BF2659" stroke="#BF2659" stroke-width="0.8" stroke-linecap="round" stroke-linejoin="round"/>
<path d="M110.709 135.323C112.189 135.323 113.388 134.117 113.388 132.63C113.388 131.143 112.189 129.937 110.709 129.937C109.23 129.937 108.031 131.143 108.031 132.63C108.031 134.117 109.23 135.323 110.709 135.323Z" fill="white" stroke="white" stroke-width="0.8" stroke-linecap="round" stroke-linejoin="round"/>
<path d="M88.8354 159.56C88.8354 165.619 82.1392 170.332 82.1392 170.332C82.1392 170.332 75.4431 165.619 75.4431 159.56C75.4431 157.774 76.1486 156.062 77.4044 154.799C78.6601 153.537 80.3633 152.827 82.1392 152.827C83.9152 152.827 85.6183 153.537 86.8741 154.799C88.1299 156.062 88.8354 157.774 88.8354 159.56V159.56Z" fill="#BF2659" stroke="#BF2659" stroke-width="0.8" stroke-linecap="round" stroke-linejoin="round"/>
<path d="M82.1394 162.253C83.6187 162.253 84.8178 161.047 84.8178 159.56C84.8178 158.072 83.6187 156.867 82.1394 156.867C80.6601 156.867 79.4609 158.072 79.4609 159.56C79.4609 161.047 80.6601 162.253 82.1394 162.253Z" fill="white" stroke="white" stroke-width="0.8" stroke-linecap="round" stroke-linejoin="round"/>
<path d="M133.475 116.472C133.475 122.532 126.779 127.244 126.779 127.244C126.779 127.244 120.083 122.532 120.083 116.472C120.083 114.687 120.789 112.974 122.044 111.712C123.3 110.449 125.003 109.74 126.779 109.74C128.555 109.74 130.258 110.449 131.514 111.712C132.77 112.974 133.475 114.687 133.475 116.472V116.472Z" fill="#BF2659" stroke="#BF2659" stroke-width="0.8" stroke-linecap="round" stroke-linejoin="round"/>
<path d="M126.78 119.165C128.259 119.165 129.458 117.96 129.458 116.472C129.458 114.985 128.259 113.779 126.78 113.779C125.3 113.779 124.101 114.985 124.101 116.472C124.101 117.96 125.3 119.165 126.78 119.165Z" fill="white" stroke="white" stroke-width="0.8" stroke-linecap="round" stroke-linejoin="round"/>
<path d="M242.399 186.49C242.399 192.55 235.703 197.262 235.703 197.262C235.703 197.262 229.007 192.55 229.007 186.49C229.007 184.705 229.712 182.992 230.968 181.73C232.224 180.467 233.927 179.758 235.703 179.758C237.479 179.758 239.182 180.467 240.438 181.73C241.693 182.992 242.399 184.705 242.399 186.49V186.49Z" fill="#BF2659" stroke="#BF2659" stroke-width="0.8" stroke-linecap="round" stroke-linejoin="round"/>
<path d="M235.703 189.183C237.182 189.183 238.381 187.978 238.381 186.49C238.381 185.003 237.182 183.797 235.703 183.797C234.224 183.797 233.024 185.003 233.024 186.49C233.024 187.978 234.224 189.183 235.703 189.183Z" fill="white" stroke="white" stroke-width="0.8" stroke-linecap="round" stroke-linejoin="round"/>
<path d="M78.1215 12.3429C78.1215 18.4021 71.4254 23.1149 71.4254 23.1149C71.4254 23.1149 64.7292 18.4021 64.7292 12.3429C64.7292 10.5573 65.4347 8.84485 66.6905 7.58226C67.9463 6.31967 69.6494 5.61035 71.4254 5.61035C73.2013 5.61035 74.9045 6.31967 76.1602 7.58226C77.416 8.84485 78.1215 10.5573 78.1215 12.3429V12.3429Z" fill="#BF2659" stroke="#BF2659" stroke-width="0.8" stroke-linecap="round" stroke-linejoin="round"/>
<path d="M71.4255 15.0358C72.9048 15.0358 74.104 13.8301 74.104 12.3428C74.104 10.8555 72.9048 9.64978 71.4255 9.64978C69.9463 9.64978 68.7471 10.8555 68.7471 12.3428C68.7471 13.8301 69.9463 15.0358 71.4255 15.0358Z" fill="white" stroke="white" stroke-width="0.8" stroke-linecap="round" stroke-linejoin="round"/>
<path d="M354.894 8.75228C354.894 14.8115 348.198 19.5243 348.198 19.5243C348.198 19.5243 341.502 14.8115 341.502 8.75228C341.502 6.96671 342.207 5.25427 343.463 3.99168C344.719 2.72909 346.422 2.01978 348.198 2.01978C349.974 2.01978 351.677 2.72909 352.933 3.99168C354.189 5.25427 354.894 6.96671 354.894 8.75228V8.75228Z" fill="#BF2659" stroke="#BF2659" stroke-width="0.8" stroke-linecap="round" stroke-linejoin="round"/>
<path d="M348.198 11.4452C349.677 11.4452 350.877 10.2395 350.877 8.75221C350.877 7.2649 349.677 6.0592 348.198 6.0592C346.719 6.0592 345.52 7.2649 345.52 8.75221C345.52 10.2395 346.719 11.4452 348.198 11.4452Z" fill="white" stroke="white" stroke-width="0.8" stroke-linecap="round" stroke-linejoin="round"/>
<path d="M285.255 111.086C285.255 117.145 278.559 121.858 278.559 121.858C278.559 121.858 271.863 117.145 271.863 111.086C271.863 109.301 272.568 107.588 273.824 106.326C275.08 105.063 276.783 104.354 278.559 104.354C280.335 104.354 282.038 105.063 283.294 106.326C284.549 107.588 285.255 109.301 285.255 111.086V111.086Z" fill="#BF2659" stroke="#BF2659" stroke-width="0.8" stroke-linecap="round" stroke-linejoin="round"/>
<path d="M278.559 113.779C280.038 113.779 281.237 112.573 281.237 111.086C281.237 109.599 280.038 108.393 278.559 108.393C277.08 108.393 275.88 109.599 275.88 111.086C275.88 112.573 277.08 113.779 278.559 113.779Z" fill="white" stroke="white" stroke-width="0.8" stroke-linecap="round" stroke-linejoin="round"/>
<path d="M215.615 35.6818C215.615 41.7411 208.919 46.4538 208.919 46.4538C208.919 46.4538 202.223 41.7411 202.223 35.6818C202.223 33.8963 202.928 32.1838 204.184 30.9212C205.44 29.6587 207.143 28.9493 208.919 28.9493C210.695 28.9493 212.398 29.6587 213.654 30.9212C214.909 32.1838 215.615 33.8963 215.615 35.6818V35.6818Z" fill="#BF2659" stroke="#BF2659" stroke-width="0.8" stroke-linecap="round" stroke-linejoin="round"/>
<path d="M208.919 38.3748C210.398 38.3748 211.597 37.1691 211.597 35.6818C211.597 34.1945 210.398 32.9888 208.919 32.9888C207.44 32.9888 206.24 34.1945 206.24 35.6818C206.24 37.1691 207.44 38.3748 208.919 38.3748Z" fill="white" stroke="white" stroke-width="0.8" stroke-linecap="round" stroke-linejoin="round"/>
<path d="M231.686 46.4538C231.686 52.5131 224.99 57.2258 224.99 57.2258C224.99 57.2258 218.293 52.5131 218.293 46.4538C218.293 44.6682 218.999 42.9558 220.255 41.6932C221.51 40.4306 223.214 39.7213 224.99 39.7213C226.765 39.7213 228.469 40.4306 229.724 41.6932C230.98 42.9558 231.686 44.6682 231.686 46.4538V46.4538Z" fill="#BF2659" stroke="#BF2659" stroke-width="0.8" stroke-linecap="round" stroke-linejoin="round"/>
<path d="M224.99 49.1467C226.469 49.1467 227.668 47.941 227.668 46.4537C227.668 44.9664 226.469 43.7607 224.99 43.7607C223.51 43.7607 222.311 44.9664 222.311 46.4537C222.311 47.941 223.51 49.1467 224.99 49.1467Z" fill="white" stroke="white" stroke-width="0.8" stroke-linecap="round" stroke-linejoin="round"/>
<path d="M78.1215 102.109C78.1215 108.169 71.4254 112.881 71.4254 112.881C71.4254 112.881 64.7292 108.169 64.7292 102.109C64.7292 100.324 65.4347 98.6113 66.6905 97.3487C67.9463 96.0861 69.6494 95.3768 71.4254 95.3768C73.2013 95.3768 74.9045 96.0861 76.1602 97.3487C77.416 98.6113 78.1215 100.324 78.1215 102.109V102.109Z" fill="#BF2659" stroke="#BF2659" stroke-width="0.8" stroke-linecap="round" stroke-linejoin="round"/>
<path d="M71.4255 104.802C72.9048 104.802 74.104 103.597 74.104 102.109C74.104 100.622 72.9048 99.4163 71.4255 99.4163C69.9463 99.4163 68.7471 100.622 68.7471 102.109C68.7471 103.597 69.9463 104.802 71.4255 104.802Z" fill="white" stroke="white" stroke-width="0.8" stroke-linecap="round" stroke-linejoin="round"/>
<path d="M181.688 145.197C181.688 151.257 174.992 155.969 174.992 155.969C174.992 155.969 168.296 151.257 168.296 145.197C168.296 143.412 169.001 141.699 170.257 140.437C171.513 139.174 173.216 138.465 174.992 138.465C176.768 138.465 178.471 139.174 179.727 140.437C180.982 141.699 181.688 143.412 181.688 145.197V145.197Z" fill="#BF2659" stroke="#BF2659" stroke-width="0.8" stroke-linecap="round" stroke-linejoin="round"/>
<path d="M174.992 147.89C176.471 147.89 177.67 146.685 177.67 145.197C177.67 143.71 176.471 142.504 174.992 142.504C173.513 142.504 172.313 143.71 172.313 145.197C172.313 146.685 173.513 147.89 174.992 147.89Z" fill="white" stroke="white" stroke-width="0.8" stroke-linecap="round" stroke-linejoin="round"/>
<path d="M258.47 170.332C258.47 176.392 251.774 181.104 251.774 181.104C251.774 181.104 245.078 176.392 245.078 170.332C245.078 168.547 245.784 166.834 247.039 165.572C248.295 164.309 249.998 163.6 251.774 163.6C253.55 163.6 255.253 164.309 256.509 165.572C257.765 166.834 258.47 168.547 258.47 170.332V170.332Z" fill="#BF2659" stroke="#BF2659" stroke-width="0.8" stroke-linecap="round" stroke-linejoin="round"/>
<path d="M251.774 173.025C253.254 173.025 254.453 171.82 254.453 170.332C254.453 168.845 253.254 167.639 251.774 167.639C250.295 167.639 249.096 168.845 249.096 170.332C249.096 171.82 250.295 173.025 251.774 173.025Z" fill="white" stroke="white" stroke-width="0.8" stroke-linecap="round" stroke-linejoin="round"/>
<path d="M231.686 138.017C231.686 144.076 224.99 148.789 224.99 148.789C224.99 148.789 218.293 144.076 218.293 138.017C218.293 136.231 218.999 134.519 220.255 133.256C221.51 131.993 223.214 131.284 224.99 131.284C226.765 131.284 228.469 131.993 229.724 133.256C230.98 134.519 231.686 136.231 231.686 138.017V138.017Z" fill="#BF2659" stroke="#BF2659" stroke-width="0.8" stroke-linecap="round" stroke-linejoin="round"/>
<path d="M224.99 140.709C226.469 140.709 227.668 139.504 227.668 138.016C227.668 136.529 226.469 135.323 224.99 135.323C223.51 135.323 222.311 136.529 222.311 138.016C222.311 139.504 223.51 140.709 224.99 140.709Z" fill="white" stroke="white" stroke-width="0.8" stroke-linecap="round" stroke-linejoin="round"/>
<path d="M194.187 82.361C194.187 88.4203 187.491 93.133 187.491 93.133C187.491 93.133 180.795 88.4203 180.795 82.361C180.795 80.5755 181.5 78.863 182.756 77.6004C184.012 76.3379 185.715 75.6285 187.491 75.6285C189.267 75.6285 190.97 76.3379 192.226 77.6004C193.482 78.863 194.187 80.5755 194.187 82.361V82.361Z" fill="#BF2659" stroke="#BF2659" stroke-width="0.8" stroke-linecap="round" stroke-linejoin="round"/>
<path d="M187.491 85.054C188.97 85.054 190.17 83.8483 190.17 82.361C190.17 80.8737 188.97 79.668 187.491 79.668C186.012 79.668 184.813 80.8737 184.813 82.361C184.813 83.8483 186.012 85.054 187.491 85.054Z" fill="white" stroke="white" stroke-width="0.8" stroke-linecap="round" stroke-linejoin="round"/>
<path d="M99.5487 67.9986C99.5487 74.0579 92.8526 78.7706 92.8526 78.7706C92.8526 78.7706 86.1565 74.0579 86.1565 67.9986C86.1565 66.213 86.862 64.5006 88.1177 63.238C89.3735 61.9754 91.0767 61.2661 92.8526 61.2661C94.6285 61.2661 96.3317 61.9754 97.5875 63.238C98.8432 64.5006 99.5487 66.213 99.5487 67.9986V67.9986Z" fill="#BF2659" stroke="#BF2659" stroke-width="0.8" stroke-linecap="round" stroke-linejoin="round"/>
<path d="M92.8528 70.6915C94.332 70.6915 95.5312 69.4858 95.5312 67.9985C95.5312 66.5112 94.332 65.3055 92.8528 65.3055C91.3735 65.3055 90.1743 66.5112 90.1743 67.9985C90.1743 69.4858 91.3735 70.6915 92.8528 70.6915Z" fill="white" stroke="white" stroke-width="0.8" stroke-linecap="round" stroke-linejoin="round"/>
<path d="M144.19 23.1148C144.19 29.1741 137.494 33.8868 137.494 33.8868C137.494 33.8868 130.798 29.1741 130.798 23.1148C130.798 21.3293 131.503 19.6168 132.759 18.3542C134.015 17.0916 135.718 16.3823 137.494 16.3823C139.27 16.3823 140.973 17.0916 142.229 18.3542C143.484 19.6168 144.19 21.3293 144.19 23.1148V23.1148Z" fill="#BF2659" stroke="#BF2659" stroke-width="0.8" stroke-linecap="round" stroke-linejoin="round"/>
<path d="M137.494 25.8078C138.973 25.8078 140.172 24.6021 140.172 23.1148C140.172 21.6275 138.973 20.4218 137.494 20.4218C136.015 20.4218 134.815 21.6275 134.815 23.1148C134.815 24.6021 136.015 25.8078 137.494 25.8078Z" fill="white" stroke="white" stroke-width="0.8" stroke-linecap="round" stroke-linejoin="round"/>
</svg>
